<?xml version="1.0" encoding="utf-8"?>
<!-- Generator: Adobe Illustrator 26.0.3, SVG Export Plug-In . SVG Version: 6.00 Build 0)  -->
<svg version="1.1" id="Layer_1" xmlns="http://www.w3.org/2000/svg" xmlns:xlink="http://www.w3.org/1999/xlink" x="0px" y="0px"
	 viewBox="0 0 33.7 32" style="enable-background:new 0 0 33.7 32;" xml:space="preserve">
<style type="text/css">
	.st0{fill:#2186C4;fill-opacity:1.000000e-02;}
	.st1{fill:#2186C4;}
</style>
<g>
	<g>
		<g>
			<path class="st0" d="M24.9,19.2c-0.8-0.8-2-1.3-3.1-1.3s-2.3,0.5-3.1,1.3l-1.2,1.2c-0.9,0.8-1.6,1.8-1.9,2.9
				c-0.3,1.1-0.3,2.3,0,3.5c-3.9-1.6-6.9-4.7-8.6-8.6c1.1,0.3,2.3,0.3,3.5,0c1.1-0.3,2.1-1,2.9-1.9l1.2-1.2c0.8-0.8,1.3-2,1.3-3.1
				s-0.5-2.3-1.3-3.1L9.4,3.8C9.1,3.5,8.6,3.2,8.1,3C7.6,2.9,7.1,2.9,6.6,3s-1,0.3-1.4,0.7C4.8,4,4.5,4.4,4.3,4.9
				c-1,2.5-1.5,5.2-1.4,7.9c0.1,2.7,0.8,5.3,2,7.7c1.2,2.4,2.9,4.5,5,6.2c2.1,1.7,4.5,2.9,7.1,3.6c3.9,1,8.1,0.7,11.9-0.8
				c0.5-0.2,0.9-0.5,1.2-0.9c0.3-0.4,0.6-0.9,0.7-1.4c0.1-0.5,0.1-1-0.1-1.5c-0.2-0.5-0.4-1-0.8-1.3L24.9,19.2z"/>
		</g>
		<path class="st1" d="M24.9,19.2c-0.8-0.8-2-1.3-3.1-1.3s-2.3,0.5-3.1,1.3l-1.2,1.2c-0.9,0.8-1.6,1.8-1.9,2.9
			c-0.3,1.1-0.3,2.3,0,3.5c-3.9-1.6-6.9-4.7-8.6-8.6c1.1,0.3,2.3,0.3,3.5,0c1.1-0.3,2.1-1,2.9-1.9l1.2-1.2c0.8-0.8,1.3-2,1.3-3.1
			s-0.5-2.3-1.3-3.1L9.4,3.8C9.1,3.5,8.6,3.2,8.1,3C7.6,2.9,7.1,2.9,6.6,3s-1,0.3-1.4,0.7C4.8,4,4.5,4.4,4.3,4.9
			c-1,2.5-1.5,5.2-1.4,7.9c0.1,2.7,0.8,5.3,2,7.7c1.2,2.4,2.9,4.5,5,6.2c2.1,1.7,4.5,2.9,7.1,3.6c3.9,1,8.1,0.7,11.9-0.8
			c0.5-0.2,0.9-0.5,1.2-0.9c0.3-0.4,0.6-0.9,0.7-1.4c0.1-0.5,0.1-1-0.1-1.5c-0.2-0.5-0.4-1-0.8-1.3L24.9,19.2z"/>
	</g>
</g>
</svg>
